# xmcd CD database file
#
# Track frame offsets:
#	150
#	30699
#	59276
#	86283
#	121146
#	148666
#	177676
#	200249
#	214687
#	235611
#	275858
#
# Disc length: 3945 seconds
#
# Revision: 0
# Processed by: cddbd v1.5.1PL0 Copyright (c) Steve Scherf et al.
# Submitted via: CDex 1.60beta1
#
DISCID=a50f670b
DTITLE=The Grimes- Robinson Quartet - Standards, Vol. 1
DYEAR=1900
DGENRE=Jazz
TTITLE0=I Remember You
TTITLE1=Emily
TTITLE2=Estate
TTITLE3=Moments Like This
TTITLE4=Slow Hot Wind
TTITLE5=I Thought About You
TTITLE6=I Concentrate On You
TTITLE7=It Never Entered My Mind
TTITLE8=Soon
TTITLE9=Love Dance
TTITLE10=It's You Or No One
EXTD=
EXTT0=
EXTT1=
EXTT2=
EXTT3=
EXTT4=
EXTT5=
EXTT6=
EXTT7=
EXTT8=
EXTT9=
EXTT10=
PLAYORDER=
